<svg xmlns="http://www.w3.org/2000/svg" xmlns:xlink="http://www.w3.org/1999/xlink" width="500" zoomAndPan="magnify" viewBox="0 0 375 374.999991" height="500" preserveAspectRatio="xMidYMid meet" version="1.0"><defs><clipPath id="7d6e210ef8"><path d="M 6 3.230469 L 226 3.230469 L 226 368 L 6 368 Z M 6 3.230469 " clip-rule="nonzero"/></clipPath><clipPath id="3227ec6476"><path d="M 225 3.230469 L 371 3.230469 L 371 368 L 225 368 Z M 225 3.230469 " clip-rule="nonzero"/></clipPath></defs><g clip-path="url(#7d6e210ef8)"><path fill="#ff8f08" d="M 141.679688 13.894531 C 127.464844 -0.324219 104.421875 -0.324219 90.207031 13.894531 L 17.398438 86.707031 C 10.574219 93.535156 6.730469 102.800781 6.730469 112.449219 L 6.640625 349.09375 C 6.640625 358.199219 15.761719 367.300781 24.863281 367.300781 L 61.410156 367.300781 C 70.53125 367.300781 79.628906 358.199219 79.628906 349.09375 L 79.539062 133.964844 C 79.882812 127.738281 82.359375 121.75 87.074219 117.035156 L 106.460938 97.59375 C 109.0625 95.5 112.355469 94.242188 115.941406 94.242188 C 119.527344 94.242188 122.820312 95.5 125.425781 97.574219 L 144.808594 117.015625 C 149.523438 121.730469 152 127.71875 152.34375 133.945312 L 152.234375 250.523438 C 152.234375 260.550781 156.296875 269.636719 162.921875 276.261719 L 175.789062 289.132812 C 182.921875 296.269531 194.445312 296.214844 201.523438 289.132812 L 214.394531 276.261719 C 220.945312 269.710938 225.0625 260.570312 225.0625 250.539062 L 225.171875 112.429688 C 225.171875 102.78125 221.328125 93.515625 214.503906 86.6875 Z M 141.679688 13.894531 " fill-opacity="1" fill-rule="nonzero"/></g><g clip-path="url(#3227ec6476)"><path fill="#ff8f08" d="M 370.746094 112.519531 C 370.746094 102.871094 366.886719 93.605469 360.0625 86.78125 L 281.523438 8.105469 C 275.023438 1.605469 262.28125 1.605469 255.785156 8.105469 L 229.972656 33.207031 C 223.550781 39.632812 223.730469 51.230469 230.175781 57.671875 L 290.878906 117.597656 C 295.828125 122.550781 297.828125 127.429688 297.957031 133.984375 L 297.957031 323.371094 C 297.957031 333.402344 302 342.488281 308.625 349.113281 L 321.492188 361.984375 C 328.628906 369.117188 340.148438 369.066406 347.230469 361.984375 L 360.097656 349.113281 C 366.652344 342.5625 370.765625 333.421875 370.765625 323.390625 L 370.726562 112.539062 Z M 370.746094 112.519531 " fill-opacity="1" fill-rule="nonzero"/></g></svg>