<svg width="500" height="500" viewBox="0 0 500 500" fill="none" xmlns="http://www.w3.org/2000/svg">
<rect width="500" height="500" fill="#FF8F08"/>
<path d="M214.286 119.823C203.488 109.024 185.987 109.024 175.191 119.823L119.894 175.132C114.71 180.317 111.792 187.355 111.792 194.684L111.724 374.436C111.724 381.351 118.649 388.264 125.563 388.264H153.321C160.247 388.264 167.158 381.351 167.158 374.436L167.09 211.027C167.352 206.298 169.232 201.749 172.813 198.168L187.536 183.401C189.512 181.811 192.015 180.856 194.738 180.856C197.46 180.856 199.963 181.811 201.939 183.387L216.662 198.154C220.243 201.736 222.123 206.285 222.385 211.014L222.303 299.562C222.303 307.181 225.386 314.08 230.418 319.114L240.191 328.891C245.61 334.31 254.361 334.269 259.738 328.891L269.513 319.114C274.488 314.136 277.614 307.195 277.614 299.576L277.697 194.67C277.697 187.341 274.779 180.303 269.596 175.118L214.286 119.823Z" fill="white"/>
<path d="M388.262 194.739C388.262 187.411 385.331 180.372 380.146 175.187L320.497 115.426C315.56 110.49 305.883 110.49 300.948 115.426L281.345 134.494C276.467 139.375 276.604 148.183 281.498 153.078L327.602 198.597C331.361 202.358 332.882 206.063 332.978 211.041V354.898C332.978 362.517 336.048 369.418 341.08 374.45L350.853 384.227C356.272 389.646 365.023 389.605 370.401 384.227L380.175 374.45C385.152 369.473 388.276 362.531 388.276 354.912L388.248 194.753L388.262 194.739Z" fill="white"/>
</svg>
