<svg width="401" height="246" viewBox="0 0 401 246" fill="none" xmlns="http://www.w3.org/2000/svg">
<path d="M0.942383 244.648V195.082H8.97797L20.1164 217.836L31.2549 195.002H39.2109V244.648H31.1753V209.721L22.0259 228.179H17.5705L8.89841 209.8V244.648H0.942383Z" fill="black"/>
<path d="M71.8151 245.603C67.4127 245.603 63.6999 244.595 60.6766 242.579C57.7064 240.564 55.4257 237.647 53.8344 233.828C52.2963 230.009 51.5272 225.368 51.5272 219.905C51.5272 214.601 52.2963 210.066 53.8344 206.3C55.4257 202.481 57.7064 199.564 60.6766 197.548C63.6999 195.48 67.4127 194.445 71.8151 194.445C76.1644 194.445 79.8241 195.48 82.7944 197.548C85.8177 199.564 88.0984 202.481 89.6366 206.3C91.2278 210.066 92.0234 214.601 92.0234 219.905C92.0234 225.368 91.2278 230.035 89.6366 233.907C88.0984 237.726 85.8177 240.643 82.7944 242.659C79.8241 244.621 76.1644 245.603 71.8151 245.603ZM71.8151 238.203C74.1488 238.203 76.1378 237.54 77.7821 236.214C79.4263 234.835 80.6993 232.793 81.601 230.088C82.5027 227.383 82.9535 223.962 82.9535 219.825C82.9535 216.006 82.5027 212.771 81.601 210.119C80.6993 207.414 79.4263 205.372 77.7821 203.992C76.1378 202.56 74.1488 201.844 71.8151 201.844C69.4283 201.844 67.3862 202.56 65.6889 203.992C64.0447 205.372 62.7717 207.414 61.87 210.119C61.0214 212.771 60.5971 216.006 60.5971 219.825C60.5971 223.962 61.0214 227.383 61.87 230.088C62.7717 232.793 64.0447 234.835 65.6889 236.214C67.3862 237.54 69.4283 238.203 71.8151 238.203Z" fill="black"/>
<path d="M125.98 245.523C122.957 245.523 120.146 245.019 117.547 244.011C114.948 243.004 112.64 241.465 110.625 239.397C108.662 237.328 107.124 234.703 106.01 231.52C104.897 228.285 104.34 224.493 104.34 220.143C104.34 216.271 104.764 212.903 105.613 210.039C106.514 207.122 107.681 204.682 109.113 202.72C110.598 200.704 112.269 199.086 114.126 197.866C116.035 196.646 117.998 195.771 120.013 195.241C122.082 194.657 124.15 194.366 126.219 194.366C130.303 194.366 133.777 195.214 136.641 196.912C139.558 198.609 141.786 200.996 143.324 204.072L137.596 208.448L137.039 208.846L136.562 208.289C136.615 207.864 136.562 207.467 136.403 207.095C136.296 206.671 136.005 206.114 135.527 205.425C134.254 203.992 132.849 203.038 131.311 202.56C129.826 202.03 128.261 201.765 126.617 201.765C124.866 201.765 123.195 202.136 121.604 202.879C120.013 203.621 118.581 204.762 117.308 206.3C116.088 207.785 115.133 209.668 114.444 211.949C113.754 214.176 113.41 216.775 113.41 219.745C113.41 222.61 113.728 225.182 114.364 227.463C115.001 229.69 115.876 231.6 116.99 233.191C118.157 234.729 119.509 235.923 121.047 236.771C122.639 237.567 124.336 237.965 126.139 237.965C127.571 237.965 128.924 237.806 130.197 237.487C131.47 237.116 132.637 236.533 133.697 235.737C134.758 234.888 135.686 233.828 136.482 232.555L142.688 237.249C140.672 240.219 138.312 242.341 135.607 243.614C132.902 244.886 129.693 245.523 125.98 245.523Z" fill="black"/>
<path d="M177.679 245.523C174.655 245.523 171.844 245.019 169.245 244.011C166.646 243.004 164.339 241.465 162.324 239.397C160.361 237.328 158.823 234.703 157.709 231.52C156.595 228.285 156.038 224.493 156.038 220.143C156.038 216.271 156.463 212.903 157.311 210.039C158.213 207.122 159.38 204.682 160.812 202.72C162.297 200.704 163.968 199.086 165.824 197.866C167.734 196.646 169.696 195.771 171.712 195.241C173.78 194.657 175.849 194.366 177.917 194.366C182.002 194.366 185.476 195.214 188.34 196.912C191.257 198.609 193.485 200.996 195.023 204.072L189.295 208.448L188.738 208.846L188.26 208.289C188.313 207.864 188.26 207.467 188.101 207.095C187.995 206.671 187.703 206.114 187.226 205.425C185.953 203.992 184.547 203.038 183.009 202.56C181.524 202.03 179.959 201.765 178.315 201.765C176.565 201.765 174.894 202.136 173.303 202.879C171.712 203.621 170.28 204.762 169.007 206.3C167.787 207.785 166.832 209.668 166.143 211.949C165.453 214.176 165.108 216.775 165.108 219.745C165.108 222.61 165.426 225.182 166.063 227.463C166.699 229.69 167.575 231.6 168.688 233.191C169.855 234.729 171.208 235.923 172.746 236.771C174.337 237.567 176.035 237.965 177.838 237.965C179.27 237.965 180.622 237.806 181.895 237.487C183.168 237.116 184.335 236.533 185.396 235.737C186.457 234.888 187.385 233.828 188.181 232.555L194.386 237.249C192.371 240.219 190.011 242.341 187.306 243.614C184.601 244.886 181.392 245.523 177.679 245.523Z" fill="black"/>
<path d="M237.174 232.952H215.534L217.125 226.428H235.504L237.174 232.952ZM226.752 211.073L215.136 244.648H205.987L224.683 194.684H228.9L247.597 244.648H238.209L226.752 211.073Z" fill="black"/>
<path d="M277.814 245.523C274.207 245.523 270.839 245.046 267.71 244.091C264.581 243.083 261.955 241.571 259.833 239.556L264.289 232.157L264.687 231.52L265.403 231.918C265.509 232.289 265.641 232.687 265.8 233.112C266.013 233.483 266.437 233.96 267.073 234.544C268.559 235.551 270.229 236.374 272.086 237.01C273.942 237.647 275.984 237.965 278.212 237.965C279.644 237.965 280.943 237.832 282.11 237.567C283.33 237.302 284.365 236.904 285.213 236.374C286.115 235.843 286.804 235.18 287.282 234.385C287.759 233.536 287.998 232.608 287.998 231.6C287.998 230.91 287.892 230.274 287.68 229.69C287.52 229.107 287.202 228.55 286.725 228.02C286.247 227.489 285.584 226.959 284.736 226.428C283.887 225.845 282.8 225.235 281.474 224.599C280.201 223.909 278.636 223.193 276.78 222.45C273.014 220.965 270.044 219.48 267.869 217.995C265.694 216.457 264.13 214.813 263.175 213.062C262.273 211.259 261.822 209.243 261.822 207.016C261.822 204.523 262.539 202.322 263.971 200.412C265.456 198.503 267.498 197.018 270.097 195.957C272.749 194.843 275.746 194.286 279.087 194.286C281.315 194.286 283.41 194.525 285.372 195.002C287.335 195.48 289.165 196.196 290.862 197.15C292.559 198.052 294.097 199.219 295.476 200.651L289.748 207.334L289.191 206.857C289.138 206.432 289.032 206.035 288.873 205.663C288.714 205.239 288.343 204.735 287.759 204.152C286.539 203.197 285.213 202.56 283.781 202.242C282.402 201.871 280.811 201.685 279.008 201.685C277.788 201.685 276.674 201.818 275.666 202.083C274.658 202.295 273.783 202.64 273.04 203.117C272.351 203.595 271.794 204.152 271.37 204.788C270.998 205.372 270.813 206.008 270.813 206.698C270.813 207.334 270.892 207.917 271.051 208.448C271.264 208.978 271.608 209.509 272.086 210.039C272.563 210.569 273.253 211.126 274.154 211.71C275.056 212.293 276.196 212.903 277.575 213.54C278.954 214.176 280.652 214.892 282.667 215.688C285.425 216.802 287.733 217.916 289.589 219.029C291.445 220.143 292.904 221.284 293.965 222.45C295.079 223.617 295.874 224.917 296.352 226.349C296.829 227.728 297.068 229.293 297.068 231.043C297.068 233.483 296.378 235.817 294.999 238.044C293.673 240.219 291.578 242.022 288.714 243.454C285.903 244.833 282.269 245.523 277.814 245.523Z" fill="black"/>
<path d="M314.476 244.648V237.249H325.296V202.481H315.033V195.082H344.788V202.481H333.968V237.328H345.266V244.648H314.476Z" fill="black"/>
<path d="M363.31 195.082H372.778L392.35 228.099L391.952 195.082H400.942V195.798C400.624 196.116 400.412 196.461 400.306 196.832C400.253 197.203 400.226 197.84 400.226 198.742V244.648H391.873L371.664 209.562V244.648H363.31V195.082Z" fill="black"/>
<path d="M180.603 4.60185C174.468 -1.53395 164.524 -1.53395 158.39 4.60185L126.971 36.0272C124.026 38.9733 122.368 42.9722 122.368 47.136L122.329 149.268C122.329 153.197 126.264 157.125 130.192 157.125H145.964C149.899 157.125 153.826 153.197 153.826 149.268L153.787 56.4222C153.936 53.7354 155.004 51.1506 157.039 49.1158L165.404 40.7253C166.527 39.8218 167.949 39.2797 169.496 39.2797C171.043 39.2797 172.465 39.8218 173.588 40.7174L181.953 49.108C183.988 51.1428 185.056 53.7275 185.205 56.4144L185.158 106.726C185.158 111.055 186.91 114.975 189.769 117.835L195.322 123.39C198.401 126.469 203.373 126.446 206.428 123.39L211.982 117.835C214.809 115.007 216.585 111.063 216.585 106.734L216.632 47.1282C216.632 42.9643 214.974 38.9655 212.029 36.0193L180.603 4.60185Z" fill="#FF8F08"/>
<path d="M279.453 47.1675C279.453 43.0036 277.788 39.0047 274.842 36.0586L240.95 2.10353C238.145 -0.701178 232.647 -0.701178 229.843 2.10353L218.705 12.9374C215.933 15.7107 216.011 20.7152 218.792 23.4963L244.987 49.3594C247.123 51.4963 247.987 53.6018 248.042 56.4301V138.167C248.042 142.496 249.786 146.417 252.645 149.276L258.198 154.831C261.277 157.91 266.249 157.887 269.305 154.831L274.858 149.276C277.686 146.448 279.461 142.504 279.461 138.175L279.445 47.1753L279.453 47.1675Z" fill="#FF8F08"/>
</svg>
